<svg xmlns="http://www.w3.org/2000/svg" viewBox="0 0 267.55 67.04"><defs><style>.cls-1{font-size:50px;fill:#0d5742;font-family:Helvetica-Bold, Helvetica;font-weight:700;}.cls-2{fill:#0c5742;}</style></defs><title>Asset 1</title><g id="Layer_2" data-name="Layer 2"><g id="Layer_1-2" data-name="Layer 1"><text class="cls-1" transform="translate(48.14 42.99)">Jot down</text></g><g id="Layer_2-2" data-name="Layer 2"><path class="cls-2" d="M32.26,32.45a13.89,13.89,0,0,0-2.73-14.34c-.12-.14-.25-.28-.38-.41a13.53,13.53,0,0,0-5.45-3.24L.69,6.33,15.85,21.84a4.52,4.52,0,0,1,6.25.27,4.79,4.79,0,0,1,0,6.67,4.54,4.54,0,0,1-6.52-.05,4.8,4.8,0,0,1-.44-6.18L0,7,7.94,30.54a13.67,13.67,0,0,0,3.17,5.58l.4.4a13.15,13.15,0,0,0,14,2.79L29.13,43l6.72-6.87Z"/></g></g></svg>