<svg width="449" height="114" viewBox="0 0 449 114" fill="none" xmlns="http://www.w3.org/2000/svg">
<path d="M320.01 59.69C323.01 50.04 325.73 42.45 327.62 34.69C328.87 29.56 331.18 27.69 336.51 27.92C341.43 28.13 345.51 28 346.65 34.23C348.23 42.65 351.73 50.41 356.65 58.46C359.65 49.46 362.46 40.92 365.43 32.46C366.69 28.88 382.15 25.82 384.31 28.73C385.7 30.59 384.03 32.54 383.54 34.44C378.95 52.2 369.4 68.09 364.34 85.66C362.51 92.01 357.42 89.18 353.57 89.73C349.72 90.28 347.13 89.48 345.83 85.08C343.5 77.18 341.72 69.08 337.58 61.08C334.93 69.92 329.58 76.88 328.02 85.38C327.02 90.86 322.84 89.76 319.24 89.76C315.35 89.76 311.45 90.52 309.7 85.01C305.18 70.78 300.08 56.74 295.21 42.62C294.65 40.99 293.64 39.37 293.62 37.73C293.62 34.42 285.37 31.98 291.98 28.38C297.71 25.26 306.98 29.07 309.41 33.58C313.53 41.33 316.44 49.58 320.01 59.69Z" fill="#291B4F"/>
<path d="M156.65 43.28C168.25 28.09 183.33 24.84 201.75 30.79V0.720001L215.81 4.29001C219.14 5.13001 220.15 7.29001 220.13 10.64C220.01 27.58 220.71 44.55 219.87 61.45C218.87 81.11 196.71 94.8 176.87 89.12C168.24 86.64 161.21 82.3 156.46 74.56C148.79 66.02 148.86 51.48 156.65 43.28Z" fill="#291B4F"/>
<path d="M258.75 90.26C242.29 90.98 224.41 74.7 224.98 59.14C225.62 41.75 241.43 27.46 260.36 27.8C278.19 28.11 295.36 43.98 294.25 59.8C293.3 73.08 280.04 91.32 258.75 90.26Z" fill="#291B4F"/>
<path d="M106.86 67.63C102.49 81 93.21 88.2 79.35 90.07C65.07 91.99 53.25 86.28 45.79 75.36C34.99 59.56 39.43 39.13 62.05 30.36C84.67 21.59 106.36 33.3 109.87 62.06C108.59 63.77 108.42 66.07 106.86 67.63Z" fill="#291B4F"/>
<path d="M429.87 71.6399C429.87 67.0299 430.14 62.4099 429.81 57.8399C429.25 50.0799 424.81 46.06 417.62 46.31C410.02 46.57 405.9 50.46 405.78 58.12C405.65 66.74 405.37 75.4 405.86 84C406.24 90.57 402.17 90.2899 398.18 89.6399C394.19 88.9899 387.45 93.17 387.45 84.31C387.45 67.06 387.45 49.8 387.45 32.54C387.45 29.48 388.27 27.03 391.73 27.87C405.36 31.2 419.88 27.1499 433.23 33.5799C441.68 37.6499 445.78 44.17 447.29 52.75C449.15 63.29 448.29 73.98 448.19 84.6C448.19 93.41 441.19 88.88 437.19 89.6C433.7 90.24 429.38 90.78 429.87 84.6C430.2 80.32 429.93 75.98 429.93 71.67L429.87 71.6399Z" fill="#291B4F"/>
<path d="M144.82 90.28C122.46 81.83 116.87 73.74 116.82 49.78C116.82 42.6 116.82 35.4133 116.82 28.22C116.82 12.03 116.82 12.03 133.88 9.97C134.167 10.4616 134.376 10.9945 134.5 11.55C135.79 28.55 135.78 28.55 153.09 27.84C155.52 31.84 153.85 36.21 154.16 40.4C154.44 44.27 151.33 44.77 148.47 45.53C144.47 46.6 138.68 43.87 137.16 50.6C135.75 56.81 138.98 64.91 144.51 68.83C145.21 69.33 145.98 69.72 146.72 70.16C153.66 74.16 156.34 80.29 154.1 87.79C152.46 93.32 148.17 90.32 144.82 90.28Z" fill="#291B4F"/>
<path d="M35.65 57.48C35.65 64.95 35.65 72.42 35.65 79.89C35.65 96.98 25.8 107 9.72002 111.64C7.21002 112.37 1.89002 115.3 1.66002 109.73C1.48002 105.13 -2.59999 97.82 5.28001 95.83C14.79 93.42 17.28 87.35 17.28 78.72C17.1667 64.9333 17.1667 51.1467 17.28 37.36C17.28 32.44 30.28 25.36 34.44 27.87C36.27 28.97 35.63 30.87 35.64 32.49C35.73 40.84 35.65 49.17 35.65 57.48Z" fill="#291B4F"/>
<path d="M106.86 67.63C106.71 65.15 106.36 62.57 109.86 62.06C110.65 64.88 110.1 66.98 106.86 67.63Z" fill="#291B4F"/>
<path d="M186.91 44.48C196.17 44.82 202.23 51.02 201.83 59.75C201.45 68.1 194.44 74.18 185.47 73.93C177.47 73.7 170.64 66.63 170.87 58.77C171.12 50.16 177.83 44.18 186.91 44.48Z" fill="#FDFEFE"/>
<path d="M259.77 44.31C268.04 44.4 275.97 51.44 276.1 58.8C276.23 66.16 267.62 74.16 259.47 74.02C250.05 73.85 242.99 67.07 243.29 58.48C243.58 50.25 250.65 44.21 259.77 44.31Z" fill="#FDFEFE"/>
<path d="M91.43 58.76C93.07 66.81 81.05 73.99 74.87 73.94C65.93 73.88 58.87 67.4299 58.66 59.3299C58.45 51.2299 65.96 44.33 75.23 44.23C82.65 44.16 91.35 51.93 91.43 58.76Z" fill="#FDFEFE"/>
</svg>
